<?xml version="1.0" encoding="UTF-8"?><svg id="Layer_1" xmlns="http://www.w3.org/2000/svg" viewBox="0 0 1920 431.67"><defs><style>.cls-1{opacity:.8;}.cls-1,.cls-2{fill:#ab13d5;}.cls-2{opacity:.5;}</style></defs><g><path d="M643.77,98.62h-95.72v66.02h92.35v38.98h-92.35v130.79h-41.47V59.64h137.2v38.98Z"/><path d="M645.45,246.5c0-25.02,8.97-46.33,26.88-63.88,17.91-17.56,39.75-26.35,65.48-26.35s47.82,8.85,65.86,26.53c17.79,17.68,26.69,39.39,26.69,65.13s-8.96,47.75-26.87,65.31c-18.04,17.44-40.16,26.16-66.38,26.16s-47.75-8.89-65.31-26.69c-17.56-17.56-26.35-39.63-26.35-66.2Zm40.94,.71c0,17.33,4.63,31.03,13.87,41.11,9.5,10.21,22.02,15.3,37.55,15.3s28.18-5.03,37.56-15.11c9.37-10.08,14.06-23.56,14.06-40.4s-4.69-30.31-14.06-40.39c-9.5-10.21-22.02-15.31-37.56-15.31s-27.7,5.1-37.19,15.31c-9.5,10.21-14.23,23.37-14.23,39.5Z"/><path d="M845.37,161.08h40.05v15.48c7.35-7.72,13.88-12.99,19.57-15.84,5.82-2.96,12.69-4.45,20.64-4.45,10.56,0,21.59,3.45,33.11,10.33l-18.33,36.66c-7.6-5.44-15.02-8.18-22.24-8.18-21.84,0-32.75,16.49-32.75,49.48v89.86h-40.05V161.08Z"/><path d="M978.1,161.08h40.03v16.02c7.72-8.08,14.3-13.53,19.76-16.38,5.82-2.96,13.11-4.45,21.88-4.45,19.57,0,35.06,8.55,46.45,25.63,12.57-17.08,29.61-25.63,51.07-25.63,39.03,0,58.54,23.69,58.54,71v107.14h-40.22v-96.28c0-16.6-2.01-28.34-6.04-35.23-4.16-6.99-10.98-10.5-20.46-10.5-11.05,0-19.08,4.15-24.11,12.45-5.06,8.3-7.57,21.65-7.57,40.03v89.52h-40.21v-95.75c0-30.84-8.91-46.26-26.7-46.26-11.28,0-19.49,4.22-24.65,12.63-5.17,8.42-7.75,21.71-7.75,39.85v89.52h-40.03V161.08Z"/><path d="M1283.53,428.74h-40.03V161.08h40.03v18.88c15.79-15.79,33.7-23.69,53.75-23.69,23.85,0,43.48,8.79,58.91,26.35,15.65,17.44,23.5,39.44,23.5,66.02s-7.78,47.64-23.31,64.95c-15.43,17.2-34.89,25.8-58.39,25.8-20.28,0-38.43-8.13-54.46-24.39v113.73Zm95.22-179.93c0-16.61-4.51-30.13-13.52-40.57-9.13-10.56-20.65-15.84-34.52-15.84-14.72,0-26.63,5.1-35.77,15.31-9.13,10.21-13.7,23.6-13.7,40.22s4.56,29.66,13.7,40.22c9,10.32,20.87,15.47,35.59,15.47,13.88,0,25.32-5.22,34.35-15.65,9.26-10.43,13.88-23.49,13.88-39.15Z"/><path d="M1474.74,161.08v173.33h-40.05V161.08h40.05Z"/><path d="M1541.01,428.74h-40.03V161.08h40.03v18.88c15.77-15.79,33.7-23.69,53.74-23.69,23.85,0,43.48,8.79,58.93,26.35,15.64,17.44,23.46,39.44,23.46,66.02s-7.77,47.64-23.3,64.95c-15.42,17.2-34.88,25.8-58.38,25.8-20.27,0-38.44-8.13-54.45-24.39v113.73Zm95.22-179.93c0-16.61-4.52-30.13-13.54-40.57-9.12-10.56-20.63-15.84-34.51-15.84-14.72,0-26.64,5.1-35.76,15.31-9.15,10.21-13.71,23.6-13.71,40.22s4.56,29.66,13.71,40.22c9,10.32,20.86,15.47,35.6,15.47,13.86,0,25.31-5.22,34.34-15.65,9.25-10.43,13.88-23.49,13.88-39.15Z"/><path d="M1859.14,257.18h-124.22c1.07,14.23,5.7,25.57,13.89,33.99,8.18,8.31,18.67,12.45,31.49,12.45,9.96,0,18.2-2.36,24.74-7.1,6.39-4.76,13.7-13.53,21.89-26.35l33.81,18.87c-5.22,8.9-10.74,16.52-16.56,22.87-5.82,6.35-12.04,11.57-18.7,15.66-6.62,4.09-13.81,7.08-21.52,8.99-7.71,1.9-16.09,2.84-25.12,2.84-25.85,0-46.6-8.3-62.27-24.92-15.66-16.73-23.49-38.9-23.49-66.55s7.59-49.59,22.79-66.56c15.29-16.73,35.58-25.09,60.84-25.09s45.69,8.14,60.53,24.39c14.71,16.13,22.07,38.5,22.07,67.09l-.17,9.43Zm-41.13-32.74c-5.57-21.36-19.03-32.03-40.39-32.03-4.86,0-9.42,.74-13.7,2.22-4.27,1.48-8.16,3.62-11.67,6.42-3.5,2.79-6.48,6.14-8.98,10.04-2.47,3.92-4.38,8.36-5.69,13.34h80.42Z"/></g><path class="cls-1" d="M1867.58,314.48c0-6.64,2.42-12.39,7.29-17.25,4.88-4.86,10.68-7.31,17.45-7.31s12.56,2.44,17.43,7.31c4.87,4.86,7.31,10.66,7.31,17.44s-2.44,12.76-7.31,17.61c-4.72,4.74-10.56,7.12-17.43,7.12s-12.88-2.38-17.62-7.12c-4.74-4.74-7.12-10.68-7.12-17.8Z"/><g><path class="cls-2" d="M164.95,118.32c46.65-36.63,105.42-58.53,169.34-58.53H59.79V334.27c0-63.93,21.92-122.69,58.56-169.35,8.63-21.12,25.47-37.97,46.6-46.6Z"/><path class="cls-2" d="M197.04,112.01c11.75,0,22.92,2.38,33.1,6.69,58.84,7.1,115.83,33.16,160.99,78.32L197.04,2.93,2.95,197.02c45.24-45.24,102.35-71.31,161.29-78.36,.25-.1,.46-.24,.71-.34,9.9-4.04,20.73-6.31,32.09-6.31Z"/><g><path class="cls-2" d="M334.29,59.78H59.8c63.93,0,122.7,21.91,169.35,58.55,.32,.13,.66,.23,.99,.37,20.67,8.75,37.15,25.45,45.63,46.27,36.63,46.65,58.52,105.4,58.52,169.31V59.78Z"/><g><path class="cls-2" d="M391.14,197.02L197.05,2.93c45.23,45.23,71.28,102.32,78.36,161.25,.12,.26,.26,.52,.36,.78,4.03,9.9,6.28,20.71,6.28,32.06s-2.37,22.92-6.67,33.1c-7.11,58.85-33.17,115.83-78.34,161l194.1-194.1Z"/><g><path class="cls-2" d="M275.74,229.15c-.15,.32-.23,.66-.36,.98-8.75,20.67-25.46,37.15-46.25,45.63-46.66,36.62-105.42,58.52-169.33,58.52H334.3V59.78c0,63.93-21.92,122.71-58.56,169.36Z"/><g><path class="cls-2" d="M229.91,275.39c-.27,.1-.51,.26-.78,.36-9.92,4.04-20.73,6.29-32.09,6.29s-22.94-2.39-33.12-6.69c-58.81-7.11-115.8-33.17-160.96-78.33l194.1,194.1,194.09-194.09c-45.23,45.22-102.31,71.29-161.23,78.36Z"/><g><path class="cls-2" d="M164.93,275.71c-.33-.13-.68-.24-1.02-.36-20.65-8.75-37.11-25.46-45.59-46.26-36.61-46.65-58.52-105.41-58.52-169.31V334.29H334.28c-63.93,0-122.72-21.93-169.36-58.58Z"/><path class="cls-2" d="M112.03,197.02c0-11.36,2.27-22.19,6.32-32.1,.09-.24,.23-.46,.32-.71,7.07-58.95,33.13-116.05,78.38-161.28L2.95,197.03l194.09,194.09c-45.23-45.24-71.3-102.33-78.36-161.26-.1-.27-.25-.52-.36-.77-4.04-9.9-6.28-20.72-6.28-32.07Z"/></g></g></g></g></g></g></svg>